<svg width="883" height="368" viewBox="0 0 883 368" fill="none" xmlns="http://www.w3.org/2000/svg">
<path d="M20.858 326.168C19.99 326.168 19.2387 325.958 18.604 325.538C17.9787 325.109 17.498 324.516 17.162 323.76C16.826 322.995 16.658 322.108 16.658 321.1C16.658 320.092 16.826 319.21 17.162 318.454C17.498 317.689 17.9787 317.096 18.604 316.676C19.2387 316.247 19.99 316.032 20.858 316.032C21.726 316.032 22.4727 316.247 23.098 316.676C23.7233 317.096 24.204 317.689 24.54 318.454C24.876 319.21 25.044 320.092 25.044 321.1C25.044 322.108 24.876 322.995 24.54 323.76C24.204 324.516 23.7233 325.109 23.098 325.538C22.4727 325.958 21.726 326.168 20.858 326.168ZM20.858 325.132C21.4273 325.132 21.936 324.973 22.384 324.656C22.8413 324.329 23.196 323.867 23.448 323.27C23.7093 322.663 23.84 321.94 23.84 321.1C23.84 320.26 23.7093 319.541 23.448 318.944C23.196 318.347 22.8413 317.889 22.384 317.572C21.936 317.245 21.4273 317.082 20.858 317.082C20.2793 317.082 19.766 317.245 19.318 317.572C18.87 317.889 18.5153 318.347 18.254 318.944C17.9927 319.541 17.862 320.26 17.862 321.1C17.862 321.94 17.9927 322.663 18.254 323.27C18.5153 323.867 18.87 324.329 19.318 324.656C19.766 324.973 20.2793 325.132 20.858 325.132Z" fill="#808D9E"/>
<path d="M0.882 264V263.174C1.54467 262.651 2.17 262.124 2.758 261.592C3.35533 261.051 3.88267 260.519 4.34 259.996C4.80667 259.473 5.17067 258.96 5.432 258.456C5.70267 257.952 5.838 257.467 5.838 257C5.838 256.655 5.77733 256.333 5.656 256.034C5.544 255.735 5.35733 255.497 5.096 255.32C4.83467 255.133 4.48 255.04 4.032 255.04C3.60267 255.04 3.24333 255.138 2.954 255.334C2.66467 255.521 2.44533 255.773 2.296 256.09C2.156 256.407 2.086 256.748 2.086 257.112H0.952C0.952 256.468 1.08733 255.917 1.358 255.46C1.62867 254.993 1.99733 254.639 2.464 254.396C2.93067 254.153 3.458 254.032 4.046 254.032C4.914 254.032 5.62333 254.279 6.174 254.774C6.734 255.259 7.014 255.987 7.014 256.958C7.014 257.537 6.86933 258.111 6.58 258.68C6.29067 259.24 5.922 259.786 5.474 260.318C5.026 260.841 4.54533 261.331 4.032 261.788C3.528 262.245 3.05667 262.656 2.618 263.02H7.35V264H0.882ZM12.733 264.168C11.865 264.168 11.1137 263.958 10.479 263.538C9.85367 263.109 9.373 262.516 9.037 261.76C8.701 260.995 8.533 260.108 8.533 259.1C8.533 258.092 8.701 257.21 9.037 256.454C9.373 255.689 9.85367 255.096 10.479 254.676C11.1137 254.247 11.865 254.032 12.733 254.032C13.601 254.032 14.3477 254.247 14.973 254.676C15.5983 255.096 16.079 255.689 16.415 256.454C16.751 257.21 16.919 258.092 16.919 259.1C16.919 260.108 16.751 260.995 16.415 261.76C16.079 262.516 15.5983 263.109 14.973 263.538C14.3477 263.958 13.601 264.168 12.733 264.168ZM12.733 263.132C13.3023 263.132 13.811 262.973 14.259 262.656C14.7163 262.329 15.071 261.867 15.323 261.27C15.5843 260.663 15.715 259.94 15.715 259.1C15.715 258.26 15.5843 257.541 15.323 256.944C15.071 256.347 14.7163 255.889 14.259 255.572C13.811 255.245 13.3023 255.082 12.733 255.082C12.1543 255.082 11.641 255.245 11.193 255.572C10.745 255.889 10.3903 256.347 10.129 256.944C9.86767 257.541 9.737 258.26 9.737 259.1C9.737 259.94 9.86767 260.663 10.129 261.27C10.3903 261.867 10.745 262.329 11.193 262.656C11.641 262.973 12.1543 263.132 12.733 263.132ZM22.44 264.168C21.572 264.168 20.8207 263.958 20.186 263.538C19.5607 263.109 19.08 262.516 18.744 261.76C18.408 260.995 18.24 260.108 18.24 259.1C18.24 258.092 18.408 257.21 18.744 256.454C19.08 255.689 19.5607 255.096 20.186 254.676C20.8207 254.247 21.572 254.032 22.44 254.032C23.308 254.032 24.0547 254.247 24.68 254.676C25.3054 255.096 25.786 255.689 26.122 256.454C26.458 257.21 26.626 258.092 26.626 259.1C26.626 260.108 26.458 260.995 26.122 261.76C25.786 262.516 25.3054 263.109 24.68 263.538C24.0547 263.958 23.308 264.168 22.44 264.168ZM22.44 263.132C23.0094 263.132 23.518 262.973 23.966 262.656C24.4234 262.329 24.778 261.867 25.03 261.27C25.2914 260.663 25.422 259.94 25.422 259.1C25.422 258.26 25.2914 257.541 25.03 256.944C24.778 256.347 24.4234 255.889 23.966 255.572C23.518 255.245 23.0094 255.082 22.44 255.082C21.8614 255.082 21.348 255.245 20.9 255.572C20.452 255.889 20.0974 256.347 19.836 256.944C19.5747 257.541 19.444 258.26 19.444 259.1C19.444 259.94 19.5747 260.663 19.836 261.27C20.0974 261.867 20.452 262.329 20.9 262.656C21.348 262.973 21.8614 263.132 22.44 263.132Z" fill="#808D9E"/>
<path d="M5.474 202V199.9H0.504V198.99L5.264 192.2H6.636V198.864H8.092V199.9H6.636V202H5.474ZM1.806 198.864H5.53V193.502L1.806 198.864ZM13.3346 202.168C12.4666 202.168 11.7152 201.958 11.0806 201.538C10.4552 201.109 9.97456 200.516 9.63856 199.76C9.30256 198.995 9.13456 198.108 9.13456 197.1C9.13456 196.092 9.30256 195.21 9.63856 194.454C9.97456 193.689 10.4552 193.096 11.0806 192.676C11.7152 192.247 12.4666 192.032 13.3346 192.032C14.2026 192.032 14.9492 192.247 15.5746 192.676C16.1999 193.096 16.6806 193.689 17.0166 194.454C17.3526 195.21 17.5206 196.092 17.5206 197.1C17.5206 198.108 17.3526 198.995 17.0166 199.76C16.6806 200.516 16.1999 201.109 15.5746 201.538C14.9492 201.958 14.2026 202.168 13.3346 202.168ZM13.3346 201.132C13.9039 201.132 14.4126 200.973 14.8606 200.656C15.3179 200.329 15.6726 199.867 15.9246 199.27C16.1859 198.663 16.3166 197.94 16.3166 197.1C16.3166 196.26 16.1859 195.541 15.9246 194.944C15.6726 194.347 15.3179 193.889 14.8606 193.572C14.4126 193.245 13.9039 193.082 13.3346 193.082C12.7559 193.082 12.2426 193.245 11.7946 193.572C11.3466 193.889 10.9919 194.347 10.7306 194.944C10.4692 195.541 10.3386 196.26 10.3386 197.1C10.3386 197.94 10.4692 198.663 10.7306 199.27C10.9919 199.867 11.3466 200.329 11.7946 200.656C12.2426 200.973 12.7559 201.132 13.3346 201.132ZM23.0416 202.168C22.1736 202.168 21.4223 201.958 20.7876 201.538C20.1623 201.109 19.6816 200.516 19.3456 199.76C19.0096 198.995 18.8416 198.108 18.8416 197.1C18.8416 196.092 19.0096 195.21 19.3456 194.454C19.6816 193.689 20.1623 193.096 20.7876 192.676C21.4223 192.247 22.1736 192.032 23.0416 192.032C23.9096 192.032 24.6563 192.247 25.2816 192.676C25.9069 193.096 26.3876 193.689 26.7236 194.454C27.0596 195.21 27.2276 196.092 27.2276 197.1C27.2276 198.108 27.0596 198.995 26.7236 199.76C26.3876 200.516 25.9069 201.109 25.2816 201.538C24.6563 201.958 23.9096 202.168 23.0416 202.168ZM23.0416 201.132C23.6109 201.132 24.1196 200.973 24.5676 200.656C25.0249 200.329 25.3796 199.867 25.6316 199.27C25.8929 198.663 26.0236 197.94 26.0236 197.1C26.0236 196.26 25.8929 195.541 25.6316 194.944C25.3796 194.347 25.0249 193.889 24.5676 193.572C24.1196 193.245 23.6109 193.082 23.0416 193.082C22.4629 193.082 21.9496 193.245 21.5016 193.572C21.0536 193.889 20.6989 194.347 20.4376 194.944C20.1763 195.541 20.0456 196.26 20.0456 197.1C20.0456 197.94 20.1763 198.663 20.4376 199.27C20.6989 199.867 21.0536 200.329 21.5016 200.656C21.9496 200.973 22.4629 201.132 23.0416 201.132Z" fill="#808D9E"/>
<path d="M4.564 140.168C3.85467 140.168 3.25733 140.037 2.772 139.776C2.28667 139.505 1.89467 139.146 1.596 138.698C1.30667 138.25 1.092 137.751 0.952 137.2C0.821333 136.64 0.756 136.071 0.756 135.492C0.756 134.409 0.905333 133.462 1.204 132.65C1.50267 131.829 1.932 131.189 2.492 130.732C3.06133 130.265 3.74733 130.032 4.55 130.032C5.166 130.032 5.69333 130.153 6.132 130.396C6.57067 130.639 6.916 130.965 7.168 131.376C7.42933 131.777 7.59267 132.225 7.658 132.72H6.566C6.46333 132.188 6.23467 131.777 5.88 131.488C5.52533 131.199 5.07733 131.054 4.536 131.054C3.79867 131.054 3.178 131.404 2.674 132.104C2.17933 132.795 1.91333 133.877 1.876 135.352C2.1 134.913 2.45467 134.535 2.94 134.218C3.43467 133.891 4.02733 133.728 4.718 133.728C5.278 133.728 5.80067 133.859 6.286 134.12C6.78067 134.381 7.182 134.75 7.49 135.226C7.798 135.693 7.952 136.243 7.952 136.878C7.952 137.429 7.81667 137.956 7.546 138.46C7.27533 138.964 6.88333 139.375 6.37 139.692C5.866 140.009 5.264 140.168 4.564 140.168ZM4.48 139.132C4.91867 139.132 5.31067 139.039 5.656 138.852C6.00133 138.665 6.272 138.409 6.468 138.082C6.664 137.746 6.762 137.363 6.762 136.934C6.762 136.271 6.54267 135.744 6.104 135.352C5.67467 134.951 5.13333 134.75 4.48 134.75C4.04133 134.75 3.64933 134.853 3.304 135.058C2.95867 135.254 2.68333 135.52 2.478 135.856C2.282 136.192 2.184 136.556 2.184 136.948C2.184 137.368 2.282 137.746 2.478 138.082C2.68333 138.409 2.95867 138.665 3.304 138.852C3.64933 139.039 4.04133 139.132 4.48 139.132ZM13.6764 140.168C12.8084 140.168 12.057 139.958 11.4224 139.538C10.797 139.109 10.3164 138.516 9.98036 137.76C9.64436 136.995 9.47636 136.108 9.47636 135.1C9.47636 134.092 9.64436 133.21 9.98036 132.454C10.3164 131.689 10.797 131.096 11.4224 130.676C12.057 130.247 12.8084 130.032 13.6764 130.032C14.5444 130.032 15.291 130.247 15.9164 130.676C16.5417 131.096 17.0224 131.689 17.3584 132.454C17.6944 133.21 17.8624 134.092 17.8624 135.1C17.8624 136.108 17.6944 136.995 17.3584 137.76C17.0224 138.516 16.5417 139.109 15.9164 139.538C15.291 139.958 14.5444 140.168 13.6764 140.168ZM13.6764 139.132C14.2457 139.132 14.7544 138.973 15.2024 138.656C15.6597 138.329 16.0144 137.867 16.2664 137.27C16.5277 136.663 16.6584 135.94 16.6584 135.1C16.6584 134.26 16.5277 133.541 16.2664 132.944C16.0144 132.347 15.6597 131.889 15.2024 131.572C14.7544 131.245 14.2457 131.082 13.6764 131.082C13.0977 131.082 12.5844 131.245 12.1364 131.572C11.6884 131.889 11.3337 132.347 11.0724 132.944C10.811 133.541 10.6804 134.26 10.6804 135.1C10.6804 135.94 10.811 136.663 11.0724 137.27C11.3337 137.867 11.6884 138.329 12.1364 138.656C12.5844 138.973 13.0977 139.132 13.6764 139.132ZM23.3834 140.168C22.5154 140.168 21.7641 139.958 21.1294 139.538C20.5041 139.109 20.0234 138.516 19.6874 137.76C19.3514 136.995 19.1834 136.108 19.1834 135.1C19.1834 134.092 19.3514 133.21 19.6874 132.454C20.0234 131.689 20.5041 131.096 21.1294 130.676C21.7641 130.247 22.5154 130.032 23.3834 130.032C24.2514 130.032 24.9981 130.247 25.6234 130.676C26.2487 131.096 26.7294 131.689 27.0654 132.454C27.4014 133.21 27.5694 134.092 27.5694 135.1C27.5694 136.108 27.4014 136.995 27.0654 137.76C26.7294 138.516 26.2487 139.109 25.6234 139.538C24.9981 139.958 24.2514 140.168 23.3834 140.168ZM23.3834 139.132C23.9527 139.132 24.4614 138.973 24.9094 138.656C25.3667 138.329 25.7214 137.867 25.9734 137.27C26.2347 136.663 26.3654 135.94 26.3654 135.1C26.3654 134.26 26.2347 133.541 25.9734 132.944C25.7214 132.347 25.3667 131.889 24.9094 131.572C24.4614 131.245 23.9527 131.082 23.3834 131.082C22.8047 131.082 22.2914 131.245 21.8434 131.572C21.3954 131.889 21.0407 132.347 20.7794 132.944C20.5181 133.541 20.3874 134.26 20.3874 135.1C20.3874 135.94 20.5181 136.663 20.7794 137.27C21.0407 137.867 21.3954 138.329 21.8434 138.656C22.2914 138.973 22.8047 139.132 23.3834 139.132Z" fill="#808D9E"/>
<path d="M4.27 78.168C3.626 78.168 3.04733 78.0513 2.534 77.818C2.02067 77.5753 1.61467 77.244 1.316 76.824C1.02667 76.3947 0.882 75.9 0.882 75.34C0.882 74.7427 1.05467 74.206 1.4 73.73C1.75467 73.254 2.22133 72.9367 2.8 72.778C2.268 72.6007 1.85733 72.316 1.568 71.924C1.27867 71.532 1.134 71.1027 1.134 70.636C1.134 70.16 1.26 69.726 1.512 69.334C1.764 68.9327 2.12333 68.6153 2.59 68.382C3.05667 68.1487 3.61667 68.032 4.27 68.032C4.92333 68.032 5.48333 68.1487 5.95 68.382C6.41667 68.6153 6.776 68.9327 7.028 69.334C7.28 69.726 7.406 70.16 7.406 70.636C7.406 71.0933 7.26133 71.5227 6.972 71.924C6.68267 72.316 6.272 72.6007 5.74 72.778C6.31867 72.9367 6.78067 73.254 7.126 73.73C7.48067 74.206 7.658 74.7427 7.658 75.34C7.658 75.9 7.50867 76.3947 7.21 76.824C6.92067 77.244 6.51933 77.5753 6.006 77.818C5.49267 78.0513 4.914 78.168 4.27 78.168ZM4.27 72.358C4.86733 72.358 5.33867 72.2087 5.684 71.91C6.03867 71.602 6.216 71.2007 6.216 70.706C6.216 70.1553 6.04333 69.74 5.698 69.46C5.35267 69.18 4.87667 69.04 4.27 69.04C3.66333 69.04 3.18733 69.18 2.842 69.46C2.506 69.74 2.338 70.1553 2.338 70.706C2.338 71.2007 2.51067 71.602 2.856 71.91C3.20133 72.2087 3.67267 72.358 4.27 72.358ZM4.27 77.132C5.00733 77.132 5.558 76.964 5.922 76.628C6.29533 76.2827 6.482 75.83 6.482 75.27C6.482 74.6353 6.28133 74.1547 5.88 73.828C5.47867 73.5013 4.942 73.338 4.27 73.338C3.598 73.338 3.06133 73.5013 2.66 73.828C2.25867 74.1547 2.058 74.6353 2.058 75.27C2.058 75.83 2.24 76.2827 2.604 76.628C2.97733 76.964 3.53267 77.132 4.27 77.132ZM13.4029 78.168C12.5349 78.168 11.7836 77.958 11.1489 77.538C10.5236 77.1087 10.0429 76.516 9.70692 75.76C9.37092 74.9947 9.20292 74.108 9.20292 73.1C9.20292 72.092 9.37092 71.21 9.70692 70.454C10.0429 69.6887 10.5236 69.096 11.1489 68.676C11.7836 68.2467 12.5349 68.032 13.4029 68.032C14.2709 68.032 15.0176 68.2467 15.6429 68.676C16.2683 69.096 16.7489 69.6887 17.0849 70.454C17.4209 71.21 17.5889 72.092 17.5889 73.1C17.5889 74.108 17.4209 74.9947 17.0849 75.76C16.7489 76.516 16.2683 77.1087 15.6429 77.538C15.0176 77.958 14.2709 78.168 13.4029 78.168ZM13.4029 77.132C13.9723 77.132 14.4809 76.9733 14.9289 76.656C15.3863 76.3293 15.7409 75.8673 15.9929 75.27C16.2543 74.6633 16.3849 73.94 16.3849 73.1C16.3849 72.26 16.2543 71.5413 15.9929 70.944C15.7409 70.3467 15.3863 69.8893 14.9289 69.572C14.4809 69.2453 13.9723 69.082 13.4029 69.082C12.8243 69.082 12.3109 69.2453 11.8629 69.572C11.4149 69.8893 11.0603 70.3467 10.7989 70.944C10.5376 71.5413 10.4069 72.26 10.4069 73.1C10.4069 73.94 10.5376 74.6633 10.7989 75.27C11.0603 75.8673 11.4149 76.3293 11.8629 76.656C12.3109 76.9733 12.8243 77.132 13.4029 77.132ZM23.11 78.168C22.242 78.168 21.4906 77.958 20.856 77.538C20.2306 77.1087 19.75 76.516 19.414 75.76C19.078 74.9947 18.91 74.108 18.91 73.1C18.91 72.092 19.078 71.21 19.414 70.454C19.75 69.6887 20.2306 69.096 20.856 68.676C21.4906 68.2467 22.242 68.032 23.11 68.032C23.978 68.032 24.7246 68.2467 25.35 68.676C25.9753 69.096 26.456 69.6887 26.792 70.454C27.128 71.21 27.296 72.092 27.296 73.1C27.296 74.108 27.128 74.9947 26.792 75.76C26.456 76.516 25.9753 77.1087 25.35 77.538C24.7246 77.958 23.978 78.168 23.11 78.168ZM23.11 77.132C23.6793 77.132 24.188 76.9733 24.636 76.656C25.0933 76.3293 25.448 75.8673 25.7 75.27C25.9613 74.6633 26.092 73.94 26.092 73.1C26.092 72.26 25.9613 71.5413 25.7 70.944C25.448 70.3467 25.0933 69.8893 24.636 69.572C24.188 69.2453 23.6793 69.082 23.11 69.082C22.5313 69.082 22.018 69.2453 21.57 69.572C21.122 69.8893 20.7673 70.3467 20.506 70.944C20.2446 71.5413 20.114 72.26 20.114 73.1C20.114 73.94 20.2446 74.6633 20.506 75.27C20.7673 75.8673 21.122 76.3293 21.57 76.656C22.018 76.9733 22.5313 77.132 23.11 77.132Z" fill="#808D9E"/>
<path d="M10.002 16V7.516L8.42 7.866V7.054L10.394 6.2H11.192V16H10.002ZM13.1906 16V5.92H14.3666V11.982L17.2086 9.056H18.6506L15.5706 12.192L19.0426 16H17.5446L14.3666 12.402V16H13.1906Z" fill="#808D9E"/>
<path d="M858.141 362V352.2H861.151C862.878 352.2 864.147 352.639 864.959 353.516C865.78 354.393 866.191 355.597 866.191 357.128C866.191 358.631 865.78 359.821 864.959 360.698C864.147 361.566 862.878 362 861.151 362H858.141ZM859.317 361.02H861.123C862.075 361.02 862.831 360.866 863.391 360.558C863.96 360.241 864.366 359.793 864.609 359.214C864.852 358.626 864.973 357.931 864.973 357.128C864.973 356.307 864.852 355.602 864.609 355.014C864.366 354.426 863.96 353.973 863.391 353.656C862.831 353.339 862.075 353.18 861.123 353.18H859.317V361.02ZM870.941 362.168C870.278 362.168 869.69 362.019 869.177 361.72C868.664 361.412 868.258 360.987 867.959 360.446C867.67 359.905 867.525 359.265 867.525 358.528C867.525 357.8 867.67 357.165 867.959 356.624C868.248 356.073 868.65 355.649 869.163 355.35C869.686 355.042 870.288 354.888 870.969 354.888C871.641 354.888 872.22 355.042 872.705 355.35C873.2 355.649 873.578 356.045 873.839 356.54C874.1 357.035 874.231 357.567 874.231 358.136C874.231 358.239 874.226 358.341 874.217 358.444C874.217 358.547 874.217 358.663 874.217 358.794H868.687C868.715 359.326 868.836 359.769 869.051 360.124C869.275 360.469 869.55 360.731 869.877 360.908C870.213 361.085 870.568 361.174 870.941 361.174C871.426 361.174 871.832 361.062 872.159 360.838C872.486 360.614 872.724 360.311 872.873 359.928H874.035C873.848 360.572 873.489 361.109 872.957 361.538C872.434 361.958 871.762 362.168 870.941 362.168ZM870.941 355.882C870.381 355.882 869.882 356.055 869.443 356.4C869.014 356.736 868.766 357.231 868.701 357.884H873.069C873.041 357.259 872.826 356.769 872.425 356.414C872.024 356.059 871.529 355.882 870.941 355.882ZM878.982 362.168C878.319 362.168 877.722 362.019 877.19 361.72C876.667 361.412 876.252 360.987 875.944 360.446C875.645 359.895 875.496 359.256 875.496 358.528C875.496 357.8 875.645 357.165 875.944 356.624C876.252 356.073 876.667 355.649 877.19 355.35C877.722 355.042 878.319 354.888 878.982 354.888C879.803 354.888 880.494 355.103 881.054 355.532C881.623 355.961 881.982 356.535 882.132 357.254H880.928C880.834 356.825 880.606 356.493 880.242 356.26C879.878 356.017 879.453 355.896 878.968 355.896C878.576 355.896 878.207 355.994 877.862 356.19C877.516 356.386 877.236 356.68 877.022 357.072C876.807 357.464 876.7 357.949 876.7 358.528C876.7 359.107 876.807 359.592 877.022 359.984C877.236 360.376 877.516 360.675 877.862 360.88C878.207 361.076 878.576 361.174 878.968 361.174C879.453 361.174 879.878 361.057 880.242 360.824C880.606 360.581 880.834 360.241 880.928 359.802H882.132C881.992 360.502 881.637 361.071 881.068 361.51C880.498 361.949 879.803 362.168 878.982 362.168Z" fill="#808D9E"/>
<path d="M784.051 362V352.2H785.227L790.449 360.054V352.2H791.625V362H790.449L785.227 354.146V362H784.051ZM796.797 362.168C796.144 362.168 795.556 362.019 795.033 361.72C794.511 361.421 794.095 361.001 793.787 360.46C793.489 359.909 793.339 359.265 793.339 358.528C793.339 357.791 793.493 357.151 793.801 356.61C794.109 356.059 794.525 355.635 795.047 355.336C795.579 355.037 796.172 354.888 796.825 354.888C797.479 354.888 798.067 355.037 798.589 355.336C799.112 355.635 799.523 356.059 799.821 356.61C800.129 357.151 800.283 357.791 800.283 358.528C800.283 359.265 800.129 359.909 799.821 360.46C799.513 361.001 799.093 361.421 798.561 361.72C798.039 362.019 797.451 362.168 796.797 362.168ZM796.797 361.16C797.199 361.16 797.572 361.062 797.917 360.866C798.263 360.67 798.543 360.376 798.757 359.984C798.972 359.592 799.079 359.107 799.079 358.528C799.079 357.949 798.972 357.464 798.757 357.072C798.552 356.68 798.277 356.386 797.931 356.19C797.586 355.994 797.217 355.896 796.825 355.896C796.424 355.896 796.051 355.994 795.705 356.19C795.36 356.386 795.08 356.68 794.865 357.072C794.651 357.464 794.543 357.949 794.543 358.528C794.543 359.107 794.651 359.592 794.865 359.984C795.08 360.376 795.355 360.67 795.691 360.866C796.037 361.062 796.405 361.16 796.797 361.16ZM803.565 362L800.933 355.056H802.165L804.251 360.866L806.351 355.056H807.555L804.923 362H803.565Z" fill="#808D9E"/>
<path d="M715.352 362.168C714.39 362.168 713.546 361.958 712.818 361.538C712.099 361.109 711.534 360.511 711.124 359.746C710.722 358.981 710.522 358.099 710.522 357.1C710.522 356.101 710.722 355.224 711.124 354.468C711.534 353.703 712.099 353.105 712.818 352.676C713.546 352.247 714.39 352.032 715.352 352.032C716.322 352.032 717.167 352.247 717.886 352.676C718.614 353.105 719.178 353.703 719.58 354.468C719.981 355.224 720.182 356.101 720.182 357.1C720.182 358.099 719.981 358.981 719.58 359.746C719.178 360.511 718.614 361.109 717.886 361.538C717.167 361.958 716.322 362.168 715.352 362.168ZM715.352 361.132C716.07 361.132 716.7 360.973 717.242 360.656C717.792 360.329 718.217 359.867 718.516 359.27C718.824 358.663 718.978 357.94 718.978 357.1C718.978 356.26 718.824 355.541 718.516 354.944C718.217 354.347 717.792 353.889 717.242 353.572C716.7 353.245 716.07 353.082 715.352 353.082C714.633 353.082 713.998 353.245 713.448 353.572C712.906 353.889 712.482 354.347 712.174 354.944C711.875 355.541 711.726 356.26 711.726 357.1C711.726 357.94 711.875 358.663 712.174 359.27C712.482 359.867 712.906 360.329 713.448 360.656C713.998 360.973 714.633 361.132 715.352 361.132ZM725 362.168C724.338 362.168 723.74 362.019 723.208 361.72C722.686 361.412 722.27 360.987 721.962 360.446C721.664 359.895 721.514 359.256 721.514 358.528C721.514 357.8 721.664 357.165 721.962 356.624C722.27 356.073 722.686 355.649 723.208 355.35C723.74 355.042 724.338 354.888 725 354.888C725.822 354.888 726.512 355.103 727.072 355.532C727.642 355.961 728.001 356.535 728.15 357.254H726.946C726.853 356.825 726.624 356.493 726.26 356.26C725.896 356.017 725.472 355.896 724.986 355.896C724.594 355.896 724.226 355.994 723.88 356.19C723.535 356.386 723.255 356.68 723.04 357.072C722.826 357.464 722.718 357.949 722.718 358.528C722.718 359.107 722.826 359.592 723.04 359.984C723.255 360.376 723.535 360.675 723.88 360.88C724.226 361.076 724.594 361.174 724.986 361.174C725.472 361.174 725.896 361.057 726.26 360.824C726.624 360.581 726.853 360.241 726.946 359.802H728.15C728.01 360.502 727.656 361.071 727.086 361.51C726.517 361.949 725.822 362.168 725 362.168ZM732.345 362C731.711 362 731.211 361.846 730.847 361.538C730.483 361.23 730.301 360.675 730.301 359.872V356.05H729.097V355.056H730.301L730.455 353.39H731.477V355.056H733.521V356.05H731.477V359.872C731.477 360.311 731.566 360.609 731.743 360.768C731.921 360.917 732.233 360.992 732.681 360.992H733.409V362H732.345Z" fill="#808D9E"/>
<path d="M640.687 362.168C639.968 362.168 639.343 362.037 638.811 361.776C638.279 361.515 637.868 361.151 637.579 360.684C637.289 360.217 637.145 359.676 637.145 359.06H638.377C638.377 359.443 638.465 359.797 638.643 360.124C638.82 360.441 639.077 360.698 639.413 360.894C639.758 361.081 640.183 361.174 640.687 361.174C641.349 361.174 641.863 361.015 642.227 360.698C642.591 360.381 642.773 359.984 642.773 359.508C642.773 359.116 642.689 358.803 642.521 358.57C642.353 358.327 642.124 358.131 641.835 357.982C641.555 357.833 641.228 357.702 640.855 357.59C640.491 357.478 640.108 357.352 639.707 357.212C638.951 356.951 638.391 356.629 638.027 356.246C637.663 355.854 637.481 355.345 637.481 354.72C637.471 354.197 637.593 353.735 637.845 353.334C638.097 352.923 638.451 352.606 638.909 352.382C639.375 352.149 639.926 352.032 640.561 352.032C641.186 352.032 641.727 352.149 642.185 352.382C642.651 352.615 643.011 352.937 643.263 353.348C643.524 353.759 643.659 354.225 643.669 354.748H642.437C642.437 354.477 642.367 354.211 642.227 353.95C642.087 353.679 641.872 353.46 641.583 353.292C641.303 353.124 640.948 353.04 640.519 353.04C639.987 353.031 639.548 353.166 639.203 353.446C638.867 353.726 638.699 354.113 638.699 354.608C638.699 355.028 638.815 355.35 639.049 355.574C639.291 355.798 639.627 355.985 640.057 356.134C640.486 356.274 640.981 356.437 641.541 356.624C642.007 356.792 642.427 356.988 642.801 357.212C643.174 357.436 643.463 357.725 643.669 358.08C643.883 358.435 643.991 358.887 643.991 359.438C643.991 359.905 643.869 360.348 643.627 360.768C643.384 361.179 643.015 361.515 642.521 361.776C642.035 362.037 641.424 362.168 640.687 362.168ZM648.711 362.168C648.048 362.168 647.46 362.019 646.947 361.72C646.433 361.412 646.027 360.987 645.729 360.446C645.439 359.905 645.295 359.265 645.295 358.528C645.295 357.8 645.439 357.165 645.729 356.624C646.018 356.073 646.419 355.649 646.933 355.35C647.455 355.042 648.057 354.888 648.739 354.888C649.411 354.888 649.989 355.042 650.475 355.35C650.969 355.649 651.347 356.045 651.609 356.54C651.87 357.035 652.001 357.567 652.001 358.136C652.001 358.239 651.996 358.341 651.987 358.444C651.987 358.547 651.987 358.663 651.987 358.794H646.457C646.485 359.326 646.606 359.769 646.821 360.124C647.045 360.469 647.32 360.731 647.647 360.908C647.983 361.085 648.337 361.174 648.711 361.174C649.196 361.174 649.602 361.062 649.929 360.838C650.255 360.614 650.493 360.311 650.643 359.928H651.805C651.618 360.572 651.259 361.109 650.727 361.538C650.204 361.958 649.532 362.168 648.711 362.168ZM648.711 355.882C648.151 355.882 647.651 356.055 647.213 356.4C646.783 356.736 646.536 357.231 646.471 357.884H650.839C650.811 357.259 650.596 356.769 650.195 356.414C649.793 356.059 649.299 355.882 648.711 355.882ZM653.559 365.08V355.056H654.623L654.735 356.204C654.959 355.868 655.277 355.565 655.687 355.294C656.107 355.023 656.639 354.888 657.283 354.888C657.974 354.888 658.576 355.047 659.089 355.364C659.603 355.681 659.999 356.115 660.279 356.666C660.569 357.217 660.713 357.842 660.713 358.542C660.713 359.242 660.569 359.867 660.279 360.418C659.999 360.959 659.598 361.389 659.075 361.706C658.562 362.014 657.96 362.168 657.269 362.168C656.7 362.168 656.191 362.051 655.743 361.818C655.305 361.585 654.969 361.258 654.735 360.838V365.08H653.559ZM657.143 361.146C657.61 361.146 658.021 361.039 658.375 360.824C658.73 360.6 659.01 360.292 659.215 359.9C659.421 359.508 659.523 359.051 659.523 358.528C659.523 358.005 659.421 357.548 659.215 357.156C659.01 356.764 658.73 356.461 658.375 356.246C658.021 356.022 657.61 355.91 657.143 355.91C656.677 355.91 656.266 356.022 655.911 356.246C655.557 356.461 655.277 356.764 655.071 357.156C654.866 357.548 654.763 358.005 654.763 358.528C654.763 359.051 654.866 359.508 655.071 359.9C655.277 360.292 655.557 360.6 655.911 360.824C656.266 361.039 656.677 361.146 657.143 361.146Z" fill="#808D9E"/>
<path d="M562.435 362L566.047 352.2H567.293L570.891 362H569.645L568.749 359.48H564.577L563.667 362H562.435ZM564.927 358.528H568.399L566.663 353.684L564.927 358.528ZM574.662 362.168C573.84 362.168 573.187 361.921 572.702 361.426C572.216 360.922 571.974 360.152 571.974 359.116V355.056H573.15V358.99C573.15 360.437 573.742 361.16 574.928 361.16C575.534 361.16 576.034 360.945 576.426 360.516C576.827 360.077 577.028 359.457 577.028 358.654V355.056H578.204V362H577.14L577.056 360.754C576.841 361.193 576.519 361.538 576.09 361.79C575.67 362.042 575.194 362.168 574.662 362.168ZM582.883 359.816C582.491 359.816 582.132 359.765 581.805 359.662L581.105 360.32C581.208 360.395 581.334 360.46 581.483 360.516C581.642 360.563 581.866 360.609 582.155 360.656C582.445 360.693 582.851 360.735 583.373 360.782C584.307 360.847 584.974 361.062 585.375 361.426C585.777 361.79 585.977 362.266 585.977 362.854C585.977 363.255 585.865 363.638 585.641 364.002C585.427 364.366 585.091 364.665 584.633 364.898C584.185 365.131 583.607 365.248 582.897 365.248C582.272 365.248 581.717 365.164 581.231 364.996C580.746 364.837 580.368 364.59 580.097 364.254C579.827 363.927 579.691 363.512 579.691 363.008C579.691 362.747 579.761 362.462 579.901 362.154C580.041 361.855 580.303 361.571 580.685 361.3C580.48 361.216 580.303 361.127 580.153 361.034C580.013 360.931 579.883 360.819 579.761 360.698V360.376L580.951 359.2C580.401 358.733 580.125 358.117 580.125 357.352C580.125 356.895 580.233 356.479 580.447 356.106C580.662 355.733 580.975 355.439 581.385 355.224C581.796 355 582.295 354.888 582.883 354.888C583.285 354.888 583.649 354.944 583.975 355.056H586.537V355.938L585.235 355.994C585.506 356.386 585.641 356.839 585.641 357.352C585.641 357.809 585.529 358.225 585.305 358.598C585.091 358.971 584.778 359.27 584.367 359.494C583.966 359.709 583.471 359.816 582.883 359.816ZM582.883 358.85C583.378 358.85 583.77 358.724 584.059 358.472C584.358 358.211 584.507 357.837 584.507 357.352C584.507 356.876 584.358 356.512 584.059 356.26C583.77 355.999 583.378 355.868 582.883 355.868C582.379 355.868 581.978 355.999 581.679 356.26C581.39 356.512 581.245 356.876 581.245 357.352C581.245 357.837 581.39 358.211 581.679 358.472C581.978 358.724 582.379 358.85 582.883 358.85ZM580.839 362.896C580.839 363.363 581.035 363.708 581.427 363.932C581.819 364.165 582.309 364.282 582.897 364.282C583.476 364.282 583.938 364.156 584.283 363.904C584.638 363.652 584.815 363.316 584.815 362.896C584.815 362.597 584.694 362.336 584.451 362.112C584.209 361.897 583.761 361.771 583.107 361.734C582.594 361.697 582.151 361.65 581.777 361.594C581.395 361.799 581.143 362.019 581.021 362.252C580.9 362.495 580.839 362.709 580.839 362.896Z" fill="#808D9E"/>
<path d="M496.126 362.168C495.239 362.168 494.544 361.921 494.04 361.426C493.536 360.931 493.284 360.245 493.284 359.368H494.474C494.474 359.863 494.595 360.278 494.838 360.614C495.08 360.95 495.505 361.118 496.112 361.118C496.7 361.118 497.106 360.955 497.33 360.628C497.563 360.301 497.68 359.895 497.68 359.41V352.2H498.856V359.41C498.856 360.278 498.613 360.955 498.128 361.44C497.652 361.925 496.984 362.168 496.126 362.168ZM503.392 362.168C502.571 362.168 501.917 361.921 501.432 361.426C500.947 360.922 500.704 360.152 500.704 359.116V355.056H501.88V358.99C501.88 360.437 502.473 361.16 503.658 361.16C504.265 361.16 504.764 360.945 505.156 360.516C505.557 360.077 505.758 359.457 505.758 358.654V355.056H506.934V362H505.87L505.786 360.754C505.571 361.193 505.249 361.538 504.82 361.79C504.4 362.042 503.924 362.168 503.392 362.168ZM508.87 362V351.92H510.046V362H508.87Z" fill="#808D9E"/>
<path d="M421.172 362.168C420.285 362.168 419.59 361.921 419.086 361.426C418.582 360.931 418.33 360.245 418.33 359.368H419.52C419.52 359.863 419.641 360.278 419.884 360.614C420.126 360.95 420.551 361.118 421.158 361.118C421.746 361.118 422.152 360.955 422.376 360.628C422.609 360.301 422.726 359.895 422.726 359.41V352.2H423.902V359.41C423.902 360.278 423.659 360.955 423.174 361.44C422.698 361.925 422.03 362.168 421.172 362.168ZM428.438 362.168C427.617 362.168 426.963 361.921 426.478 361.426C425.993 360.922 425.75 360.152 425.75 359.116V355.056H426.926V358.99C426.926 360.437 427.519 361.16 428.704 361.16C429.311 361.16 429.81 360.945 430.202 360.516C430.603 360.077 430.804 359.457 430.804 358.654V355.056H431.98V362H430.916L430.832 360.754C430.617 361.193 430.295 361.538 429.866 361.79C429.446 362.042 428.97 362.168 428.438 362.168ZM433.916 362V355.056H434.98L435.05 356.302C435.274 355.863 435.596 355.518 436.016 355.266C436.436 355.014 436.912 354.888 437.444 354.888C438.265 354.888 438.918 355.14 439.404 355.644C439.898 356.139 440.146 356.904 440.146 357.94V362H438.97V358.066C438.97 356.619 438.372 355.896 437.178 355.896C436.58 355.896 436.081 356.115 435.68 356.554C435.288 356.983 435.092 357.599 435.092 358.402V362H433.916Z" fill="#808D9E"/>
<path fill-rule="evenodd" clip-rule="evenodd" d="M870 12L57 12L57 11L870 11L870 12Z" fill="#E9ECF2"/>
<path d="M341.035 362V352.2H342.407L345.935 359.032L349.435 352.2H350.821V362H349.645V354.3L346.369 360.6H345.487L342.211 354.314V362H341.035ZM355.129 362.168C354.55 362.168 354.069 362.07 353.687 361.874C353.304 361.678 353.019 361.417 352.833 361.09C352.646 360.763 352.553 360.409 352.553 360.026C352.553 359.317 352.823 358.771 353.365 358.388C353.906 358.005 354.643 357.814 355.577 357.814H357.453V357.73C357.453 357.123 357.294 356.666 356.977 356.358C356.659 356.041 356.235 355.882 355.703 355.882C355.245 355.882 354.849 355.999 354.513 356.232C354.186 356.456 353.981 356.787 353.897 357.226H352.693C352.739 356.722 352.907 356.297 353.197 355.952C353.495 355.607 353.864 355.345 354.303 355.168C354.741 354.981 355.208 354.888 355.703 354.888C356.673 354.888 357.401 355.149 357.887 355.672C358.381 356.185 358.629 356.871 358.629 357.73V362H357.579L357.509 360.754C357.313 361.146 357.023 361.482 356.641 361.762C356.267 362.033 355.763 362.168 355.129 362.168ZM355.311 361.174C355.759 361.174 356.141 361.057 356.459 360.824C356.785 360.591 357.033 360.287 357.201 359.914C357.369 359.541 357.453 359.149 357.453 358.738V358.724H355.675C354.984 358.724 354.494 358.845 354.205 359.088C353.925 359.321 353.785 359.615 353.785 359.97C353.785 360.334 353.915 360.628 354.177 360.852C354.447 361.067 354.825 361.174 355.311 361.174ZM360.944 365.08L362.666 361.328H362.26L359.502 355.056H360.776L363.072 360.46L365.508 355.056H366.726L362.176 365.08H360.944Z" fill="#808D9E"/>
<path fill-rule="evenodd" clip-rule="evenodd" d="M870 73.9886L57 73.9886L57 73.0114L870 73.0113L870 73.9886Z" fill="#E9ECF2"/>
<path d="M267.333 362L270.945 352.2H272.191L275.789 362H274.543L273.647 359.48H269.475L268.565 362H267.333ZM269.825 358.528H273.297L271.561 353.684L269.825 358.528ZM277.176 365.08V355.056H278.24L278.352 356.204C278.576 355.868 278.893 355.565 279.304 355.294C279.724 355.023 280.256 354.888 280.9 354.888C281.591 354.888 282.193 355.047 282.706 355.364C283.219 355.681 283.616 356.115 283.896 356.666C284.185 357.217 284.33 357.842 284.33 358.542C284.33 359.242 284.185 359.867 283.896 360.418C283.616 360.959 283.215 361.389 282.692 361.706C282.179 362.014 281.577 362.168 280.886 362.168C280.317 362.168 279.808 362.051 279.36 361.818C278.921 361.585 278.585 361.258 278.352 360.838V365.08H277.176ZM280.76 361.146C281.227 361.146 281.637 361.039 281.992 360.824C282.347 360.6 282.627 360.292 282.832 359.9C283.037 359.508 283.14 359.051 283.14 358.528C283.14 358.005 283.037 357.548 282.832 357.156C282.627 356.764 282.347 356.461 281.992 356.246C281.637 356.022 281.227 355.91 280.76 355.91C280.293 355.91 279.883 356.022 279.528 356.246C279.173 356.461 278.893 356.764 278.688 357.156C278.483 357.548 278.38 358.005 278.38 358.528C278.38 359.051 278.483 359.508 278.688 359.9C278.893 360.292 279.173 360.6 279.528 360.824C279.883 361.039 280.293 361.146 280.76 361.146ZM285.967 362V355.056H287.031L287.129 356.386C287.344 355.929 287.67 355.565 288.109 355.294C288.548 355.023 289.089 354.888 289.733 354.888V356.12H289.411C289 356.12 288.622 356.195 288.277 356.344C287.932 356.484 287.656 356.727 287.451 357.072C287.246 357.417 287.143 357.893 287.143 358.5V362H285.967Z" fill="#808D9E"/>
<path fill-rule="evenodd" clip-rule="evenodd" d="M870 135.989L57 135.989L57 135.011L870 135.011L870 135.989Z" fill="#E9ECF2"/>
<path d="M193.779 362V352.2H195.151L198.679 359.032L202.179 352.2H203.565V362H202.389V354.3L199.113 360.6H198.231L194.955 354.314V362H193.779ZM207.873 362.168C207.294 362.168 206.813 362.07 206.431 361.874C206.048 361.678 205.763 361.417 205.577 361.09C205.39 360.763 205.297 360.409 205.297 360.026C205.297 359.317 205.567 358.771 206.109 358.388C206.65 358.005 207.387 357.814 208.321 357.814H210.197V357.73C210.197 357.123 210.038 356.666 209.721 356.358C209.403 356.041 208.979 355.882 208.447 355.882C207.989 355.882 207.593 355.999 207.257 356.232C206.93 356.456 206.725 356.787 206.641 357.226H205.437C205.483 356.722 205.651 356.297 205.941 355.952C206.239 355.607 206.608 355.345 207.047 355.168C207.485 354.981 207.952 354.888 208.447 354.888C209.417 354.888 210.145 355.149 210.631 355.672C211.125 356.185 211.373 356.871 211.373 357.73V362H210.323L210.253 360.754C210.057 361.146 209.767 361.482 209.385 361.762C209.011 362.033 208.507 362.168 207.873 362.168ZM208.055 361.174C208.503 361.174 208.885 361.057 209.203 360.824C209.529 360.591 209.777 360.287 209.945 359.914C210.113 359.541 210.197 359.149 210.197 358.738V358.724H208.419C207.728 358.724 207.238 358.845 206.949 359.088C206.669 359.321 206.529 359.615 206.529 359.97C206.529 360.334 206.659 360.628 206.921 360.852C207.191 361.067 207.569 361.174 208.055 361.174ZM213.137 362V355.056H214.201L214.299 356.386C214.514 355.929 214.84 355.565 215.279 355.294C215.718 355.023 216.259 354.888 216.903 354.888V356.12H216.581C216.17 356.12 215.792 356.195 215.447 356.344C215.102 356.484 214.826 356.727 214.621 357.072C214.416 357.417 214.313 357.893 214.313 358.5V362H213.137Z" fill="#808D9E"/>
<path fill-rule="evenodd" clip-rule="evenodd" d="M870 197.989L57 197.989L57 197.011L870 197.011L870 197.989Z" fill="#E9ECF2"/>
<path d="M119.566 362V352.2H125.53V353.166H120.742V356.61H124.816V357.562H120.742V362H119.566ZM129.796 362.168C129.133 362.168 128.545 362.019 128.032 361.72C127.519 361.412 127.113 360.987 126.814 360.446C126.525 359.905 126.38 359.265 126.38 358.528C126.38 357.8 126.525 357.165 126.814 356.624C127.103 356.073 127.505 355.649 128.018 355.35C128.541 355.042 129.143 354.888 129.824 354.888C130.496 354.888 131.075 355.042 131.56 355.35C132.055 355.649 132.433 356.045 132.694 356.54C132.955 357.035 133.086 357.567 133.086 358.136C133.086 358.239 133.081 358.341 133.072 358.444C133.072 358.547 133.072 358.663 133.072 358.794H127.542C127.57 359.326 127.691 359.769 127.906 360.124C128.13 360.469 128.405 360.731 128.732 360.908C129.068 361.085 129.423 361.174 129.796 361.174C130.281 361.174 130.687 361.062 131.014 360.838C131.341 360.614 131.579 360.311 131.728 359.928H132.89C132.703 360.572 132.344 361.109 131.812 361.538C131.289 361.958 130.617 362.168 129.796 362.168ZM129.796 355.882C129.236 355.882 128.737 356.055 128.298 356.4C127.869 356.736 127.621 357.231 127.556 357.884H131.924C131.896 357.259 131.681 356.769 131.28 356.414C130.879 356.059 130.384 355.882 129.796 355.882ZM138.355 362.168C137.785 362.168 137.277 362.051 136.829 361.818C136.39 361.585 136.054 361.258 135.821 360.838L135.709 362H134.645V351.92H135.821V356.204C136.045 355.868 136.362 355.565 136.773 355.294C137.193 355.023 137.725 354.888 138.369 354.888C139.059 354.888 139.661 355.047 140.175 355.364C140.688 355.681 141.085 356.115 141.365 356.666C141.654 357.217 141.799 357.842 141.799 358.542C141.799 359.242 141.654 359.867 141.365 360.418C141.085 360.959 140.683 361.389 140.161 361.706C139.647 362.014 139.045 362.168 138.355 362.168ZM138.229 361.146C138.695 361.146 139.106 361.039 139.461 360.824C139.815 360.6 140.095 360.292 140.301 359.9C140.506 359.508 140.609 359.051 140.609 358.528C140.609 358.005 140.506 357.548 140.301 357.156C140.095 356.764 139.815 356.461 139.461 356.246C139.106 356.022 138.695 355.91 138.229 355.91C137.762 355.91 137.351 356.022 136.997 356.246C136.642 356.461 136.362 356.764 136.157 357.156C135.951 357.548 135.849 358.005 135.849 358.528C135.849 359.051 135.951 359.508 136.157 359.9C136.362 360.292 136.642 360.6 136.997 360.824C137.351 361.039 137.762 361.146 138.229 361.146Z" fill="#808D9E"/>
<path fill-rule="evenodd" clip-rule="evenodd" d="M870 259.989L57 259.989L57 259.011L870 259.011L870 259.989Z" fill="#E9ECF2"/>
<path d="M48.9339 362.168C48.0472 362.168 47.3519 361.921 46.8479 361.426C46.3439 360.931 46.0919 360.245 46.0919 359.368H47.2819C47.2819 359.863 47.4032 360.278 47.6459 360.614C47.8885 360.95 48.3132 361.118 48.9199 361.118C49.5079 361.118 49.9139 360.955 50.1379 360.628C50.3712 360.301 50.4879 359.895 50.4879 359.41V352.2H51.6639V359.41C51.6639 360.278 51.4212 360.955 50.9359 361.44C50.4599 361.925 49.7925 362.168 48.9339 362.168ZM55.9762 362.168C55.3975 362.168 54.9169 362.07 54.5342 361.874C54.1515 361.678 53.8669 361.417 53.6802 361.09C53.4935 360.763 53.4002 360.409 53.4002 360.026C53.4002 359.317 53.6709 358.771 54.2122 358.388C54.7535 358.005 55.4909 357.814 56.4242 357.814H58.3002V357.73C58.3002 357.123 58.1415 356.666 57.8242 356.358C57.5069 356.041 57.0822 355.882 56.5502 355.882C56.0929 355.882 55.6962 355.999 55.3602 356.232C55.0335 356.456 54.8282 356.787 54.7442 357.226H53.5402C53.5869 356.722 53.7549 356.297 54.0442 355.952C54.3429 355.607 54.7115 355.345 55.1502 355.168C55.5889 354.981 56.0555 354.888 56.5502 354.888C57.5209 354.888 58.2489 355.149 58.7342 355.672C59.2289 356.185 59.4762 356.871 59.4762 357.73V362H58.4262L58.3562 360.754C58.1602 361.146 57.8709 361.482 57.4882 361.762C57.1149 362.033 56.6109 362.168 55.9762 362.168ZM56.1582 361.174C56.6062 361.174 56.9889 361.057 57.3062 360.824C57.6329 360.591 57.8802 360.287 58.0482 359.914C58.2162 359.541 58.3002 359.149 58.3002 358.738V358.724H56.5222C55.8315 358.724 55.3415 358.845 55.0522 359.088C54.7722 359.321 54.6322 359.615 54.6322 359.97C54.6322 360.334 54.7629 360.628 55.0242 360.852C55.2949 361.067 55.6729 361.174 56.1582 361.174ZM61.2404 362V355.056H62.3044L62.3744 356.302C62.5984 355.863 62.9204 355.518 63.3404 355.266C63.7604 355.014 64.2364 354.888 64.7684 354.888C65.5897 354.888 66.2431 355.14 66.7284 355.644C67.2231 356.139 67.4704 356.904 67.4704 357.94V362H66.2944V358.066C66.2944 356.619 65.6971 355.896 64.5024 355.896C63.9051 355.896 63.4057 356.115 63.0044 356.554C62.6124 356.983 62.4164 357.599 62.4164 358.402V362H61.2404Z" fill="#808D9E"/>
<path fill-rule="evenodd" clip-rule="evenodd" d="M870 321.989L57 321.989L57 321.011L870 321.011L870 321.989Z" fill="#E9ECF2"/>
<path d="M57 177.897C59.2517 180.66 68.8084 174.485 80.5 177.988C89.7059 180.746 97.7141 189.605 109.5 192.282C131.87 197.363 150.126 202.584 160.5 214.719C170.874 226.854 186.445 268 205 268C223.555 268 233 246.598 240 232.5C246.705 218.997 259.619 186.564 280.5 182.988C303.548 179.041 322.5 154.972 350 150.926C364.657 148.77 376.399 152.967 389.5 159.488C402.601 166.009 400.036 168.825 429.5 173.852C453.814 178 460.174 192.282 484 194C507.826 195.719 518.845 141.942 544 146.431C569.155 150.92 574.181 139.314 597.826 161.31C621.472 183.307 643.317 165.754 673 161.265C702.683 156.776 710.413 170.703 724.5 168.907C738.587 167.111 751.27 201.062 763.344 206C775.418 210.938 778.842 193 804.5 193C830.158 193 827.413 175.198 841.5 173.852C855.587 172.505 865.472 174.778 870 168.942" stroke="#FF6A55" stroke-width="4" stroke-linecap="round" stroke-linejoin="round"/>
<path d="M57 214.821C61.0248 218.408 91.7135 223.624 109.322 210.909C126.93 198.195 142.526 205.041 160.637 207.649C178.749 210.257 184.786 179.613 204.91 175.701C225.033 171.789 250.188 150.89 280.374 146C310.559 141.11 308.547 170.159 348.291 174.397C388.036 178.635 399.104 148.969 417.215 140.493C435.327 132.017 443.376 93.3921 473.562 96.0001C503.748 98.6081 518.84 124.74 543.995 128C569.15 131.26 574.181 152.881 597.826 168.855C621.472 184.829 643.105 186.785 672.787 183.525C702.47 180.265 710.519 147.304 724.606 146C738.692 144.696 751.27 160.414 763.344 164C775.418 167.586 778.94 183.525 804.598 183.525C830.256 183.525 827.237 189.719 841.324 188.741C855.41 187.763 865.472 178.635 870 174.397" stroke="#2A85FF" stroke-width="4" stroke-linecap="round" stroke-linejoin="round"/>
<path fill-rule="evenodd" clip-rule="evenodd" d="M572.957 344V146H573.957V344H572.957Z" fill="#2A85FF"/>
<g filter="url(#filter0_d_2026_118)">
<rect x="566" y="141" width="14" height="14" rx="7" fill="#2A85FF"/>
<rect x="566" y="141" width="14" height="14" rx="7" stroke="white" stroke-width="4"/>
</g>
<g filter="url(#filter1_d_2026_118)">
<path fill-rule="evenodd" clip-rule="evenodd" d="M576.462 132.149C574.55 134.617 571.45 134.617 569.538 132.149L566.39 128.654C565.442 127.601 564.092 127 562.675 127H534.229C527.543 127 525.118 126.304 522.674 124.997C520.229 123.689 518.311 121.771 517.003 119.326C515.696 116.882 515 114.457 515 107.771V81.2291C515 74.5427 515.696 72.1181 517.003 69.6737C518.311 67.2292 520.229 65.3108 522.674 64.0035C525.118 62.6962 527.543 62 534.229 62H610.771C617.457 62 619.882 62.6962 622.326 64.0035C624.771 65.3108 626.689 67.2292 627.997 69.6737C629.304 72.1181 630 74.5427 630 81.2291V107.771C630 114.457 629.304 116.882 627.997 119.326C626.689 121.771 624.771 123.689 622.326 124.997C619.882 126.304 617.457 127 610.771 127H585.551C582.717 127 580.017 128.202 578.12 130.308L576.462 132.149Z" fill="white"/>
</g>
<path d="M535.28 93.74V92.2C533.987 92.0533 532.933 91.6 532.12 90.84C531.307 90.08 530.887 89.06 530.86 87.78H533.56C533.587 88.3133 533.747 88.78 534.04 89.18C534.347 89.58 534.76 89.8533 535.28 90V85.78C535.16 85.74 535.033 85.7 534.9 85.66C534.78 85.62 534.653 85.58 534.52 85.54C533.44 85.1667 532.613 84.6867 532.04 84.1C531.48 83.5133 531.2 82.7333 531.2 81.76C531.187 80.6133 531.56 79.6933 532.32 79C533.08 78.2933 534.067 77.8867 535.28 77.78V76.16H536.62V77.8C537.82 77.92 538.787 78.34 539.52 79.06C540.267 79.7667 540.66 80.68 540.7 81.8H537.96C537.947 81.4133 537.82 81.06 537.58 80.74C537.353 80.4067 537.033 80.1733 536.62 80.04V83.76C536.727 83.8 536.833 83.84 536.94 83.88C537.047 83.9067 537.153 83.94 537.26 83.98C537.953 84.22 538.587 84.5 539.16 84.82C539.733 85.14 540.193 85.5667 540.54 86.1C540.887 86.62 541.06 87.2933 541.06 88.12C541.06 88.8133 540.887 89.46 540.54 90.06C540.207 90.66 539.707 91.16 539.04 91.56C538.387 91.9467 537.58 92.1667 536.62 92.22V93.74H535.28ZM533.88 81.58C533.88 82.0067 534.007 82.3533 534.26 82.62C534.513 82.8733 534.853 83.0933 535.28 83.28V79.96C534.867 80.04 534.527 80.22 534.26 80.5C534.007 80.78 533.88 81.14 533.88 81.58ZM538.34 88.3C538.34 87.7667 538.18 87.3467 537.86 87.04C537.54 86.7333 537.127 86.4733 536.62 86.26V90.06C537.153 89.98 537.573 89.7867 537.88 89.48C538.187 89.1733 538.34 88.78 538.34 88.3ZM546.859 92L552.139 80.18H545.239V78H554.779V79.82L549.519 92H546.859ZM560.507 92.24C559.547 92.24 558.68 92.0733 557.907 91.74C557.134 91.3933 556.514 90.9067 556.047 90.28C555.594 89.6533 555.367 88.9267 555.367 88.1C555.367 87.2467 555.587 86.5 556.027 85.86C556.48 85.22 557.074 84.76 557.807 84.48C557.167 84.2 556.66 83.8 556.287 83.28C555.914 82.7467 555.727 82.1533 555.727 81.5C555.727 80.8333 555.907 80.22 556.267 79.66C556.627 79.0867 557.16 78.6267 557.867 78.28C558.587 77.9333 559.467 77.76 560.507 77.76C561.547 77.76 562.42 77.9333 563.127 78.28C563.834 78.6267 564.367 79.0867 564.727 79.66C565.087 80.22 565.267 80.8333 565.267 81.5C565.267 82.14 565.074 82.7333 564.687 83.28C564.314 83.8133 563.814 84.2133 563.187 84.48C563.934 84.76 564.527 85.22 564.967 85.86C565.407 86.5 565.627 87.2467 565.627 88.1C565.627 88.9267 565.4 89.6533 564.947 90.28C564.494 90.9067 563.874 91.3933 563.087 91.74C562.314 92.0733 561.454 92.24 560.507 92.24ZM560.507 83.72C561.2 83.72 561.747 83.54 562.147 83.18C562.547 82.82 562.747 82.36 562.747 81.8C562.747 81.1867 562.547 80.7067 562.147 80.36C561.76 80.0133 561.214 79.84 560.507 79.84C559.787 79.84 559.234 80.0133 558.847 80.36C558.46 80.7067 558.267 81.1867 558.267 81.8C558.267 82.3733 558.46 82.84 558.847 83.2C559.247 83.5467 559.8 83.72 560.507 83.72ZM560.507 90.1C561.36 90.1 562.007 89.8933 562.447 89.48C562.887 89.0533 563.107 88.52 563.107 87.88C563.107 87.1733 562.874 86.62 562.407 86.22C561.954 85.82 561.32 85.62 560.507 85.62C559.694 85.62 559.047 85.82 558.567 86.22C558.1 86.62 557.867 87.1733 557.867 87.88C557.867 88.52 558.087 89.0533 558.527 89.48C558.98 89.8933 559.64 90.1 560.507 90.1ZM572.885 92.24C571.592 92.24 570.485 91.94 569.565 91.34C568.645 90.7267 567.932 89.88 567.425 88.8C566.932 87.7067 566.685 86.44 566.685 85C566.685 83.5733 566.932 82.3133 567.425 81.22C567.932 80.1267 568.645 79.28 569.565 78.68C570.485 78.0667 571.592 77.76 572.885 77.76C574.178 77.76 575.285 78.0667 576.205 78.68C577.125 79.28 577.832 80.1267 578.325 81.22C578.832 82.3133 579.085 83.5733 579.085 85C579.085 86.44 578.832 87.7067 578.325 88.8C577.832 89.88 577.125 90.7267 576.205 91.34C575.285 91.94 574.178 92.24 572.885 92.24ZM572.885 89.94C573.938 89.94 574.798 89.5 575.465 88.62C576.132 87.74 576.465 86.5333 576.465 85C576.465 83.4667 576.132 82.26 575.465 81.38C574.798 80.5 573.938 80.06 572.885 80.06C571.818 80.06 570.952 80.5 570.285 81.38C569.632 82.26 569.305 83.4667 569.305 85C569.305 86.5333 569.632 87.74 570.285 88.62C570.952 89.5 571.818 89.94 572.885 89.94Z" fill="#171725"/>
<path d="M535.332 108.095V101.047H536.645V108.095C536.645 108.751 536.51 109.305 536.241 109.756C535.972 110.207 535.601 110.551 535.127 110.788C534.658 111.021 534.118 111.137 533.507 111.137C532.896 111.137 532.354 111.032 531.88 110.822C531.406 110.613 531.035 110.294 530.766 109.865C530.497 109.437 530.362 108.897 530.362 108.245H531.682C531.682 108.664 531.759 109.008 531.914 109.277C532.069 109.546 532.283 109.744 532.557 109.872C532.835 110 533.151 110.063 533.507 110.063C533.853 110.063 534.163 109.991 534.437 109.845C534.715 109.694 534.933 109.473 535.093 109.182C535.252 108.885 535.332 108.523 535.332 108.095ZM543.314 109.291V103.604H544.585V111H543.375L543.314 109.291ZM543.553 107.732L544.079 107.719C544.079 108.211 544.027 108.667 543.922 109.086C543.822 109.501 543.658 109.861 543.43 110.166C543.202 110.471 542.904 110.711 542.535 110.884C542.165 111.052 541.717 111.137 541.188 111.137C540.828 111.137 540.497 111.084 540.197 110.979C539.9 110.875 539.645 110.713 539.431 110.494C539.217 110.275 539.051 109.991 538.932 109.64C538.818 109.289 538.761 108.867 538.761 108.375V103.604H540.026V108.389C540.026 108.721 540.062 108.997 540.135 109.216C540.213 109.43 540.315 109.601 540.443 109.729C540.575 109.852 540.721 109.938 540.88 109.988C541.044 110.038 541.213 110.063 541.386 110.063C541.924 110.063 542.35 109.961 542.664 109.756C542.979 109.546 543.204 109.266 543.341 108.915C543.482 108.56 543.553 108.165 543.553 107.732ZM547.987 100.5V111H546.716V100.5H547.987ZM552.196 110.234L554.253 103.604H555.607L552.64 112.142C552.571 112.324 552.48 112.52 552.366 112.729C552.257 112.944 552.116 113.146 551.943 113.338C551.769 113.529 551.56 113.684 551.314 113.803C551.072 113.926 550.783 113.987 550.446 113.987C550.345 113.987 550.218 113.974 550.063 113.946C549.908 113.919 549.798 113.896 549.735 113.878L549.728 112.853C549.764 112.857 549.821 112.862 549.899 112.866C549.981 112.875 550.038 112.88 550.07 112.88C550.357 112.88 550.6 112.841 550.801 112.764C551.001 112.691 551.17 112.565 551.307 112.388C551.448 112.215 551.569 111.975 551.669 111.67L552.196 110.234ZM550.685 103.604L552.606 109.346L552.934 110.679L552.025 111.144L549.304 103.604H550.685Z" fill="#808D9E"/>
<defs>
<filter id="filter0_d_2026_118" x="560" y="137" width="26" height="26" filterUnits="userSpaceOnUse" color-interpolation-filters="sRGB">
<feFlood flood-opacity="0" result="BackgroundImageFix"/>
<feColorMatrix in="SourceAlpha" type="matrix" values="0 0 0 0 0 0 0 0 0 0 0 0 0 0 0 0 0 0 127 0" result="hardAlpha"/>
<feOffset dy="2"/>
<feGaussianBlur stdDeviation="2"/>
<feColorMatrix type="matrix" values="0 0 0 0 0.268354 0 0 0 0 0.268354 0 0 0 0 0.31049 0 0 0 0.15 0"/>
<feBlend mode="normal" in2="BackgroundImageFix" result="effect1_dropShadow_2026_118"/>
<feBlend mode="normal" in="SourceGraphic" in2="effect1_dropShadow_2026_118" result="shape"/>
</filter>
<filter id="filter1_d_2026_118" x="500" y="52" width="145" height="102" filterUnits="userSpaceOnUse" color-interpolation-filters="sRGB">
<feFlood flood-opacity="0" result="BackgroundImageFix"/>
<feColorMatrix in="SourceAlpha" type="matrix" values="0 0 0 0 0 0 0 0 0 0 0 0 0 0 0 0 0 0 127 0" result="hardAlpha"/>
<feOffset dy="5"/>
<feGaussianBlur stdDeviation="7.5"/>
<feColorMatrix type="matrix" values="0 0 0 0 0.268354 0 0 0 0 0.268354 0 0 0 0 0.31049 0 0 0 0.1 0"/>
<feBlend mode="normal" in2="BackgroundImageFix" result="effect1_dropShadow_2026_118"/>
<feBlend mode="normal" in="SourceGraphic" in2="effect1_dropShadow_2026_118" result="shape"/>
</filter>
</defs>
</svg>
