<svg width="48" height="48" viewBox="0 0 48 48" fill="none" xmlns="http://www.w3.org/2000/svg">
<rect width="48" height="48" rx="24" fill="#B1E5FC"/>
<path d="M28.9 24.9996C28.7191 25.8845 28.3019 26.7039 27.6927 27.3707C27.0835 28.0376 26.3051 28.5269 25.4401 28.7868C24.5751 29.0467 23.6558 29.0675 22.78 28.8469C21.9041 28.6263 21.1044 28.1725 20.4657 27.5339C19.8271 26.8952 19.3733 26.0955 19.1527 25.2196C18.9321 24.3438 18.9529 23.4245 19.2128 22.5595C19.4727 21.6945 19.962 20.9161 20.6289 20.3069C21.2957 19.6977 22.1151 19.2805 23 19.0996" stroke="#1D1E25" stroke-width="2" stroke-linecap="round" stroke-linejoin="round"/>
<path d="M24.33 15H24C22.22 15 20.4799 15.5278 18.9999 16.5168C17.5198 17.5057 16.3663 18.9113 15.6851 20.5558C15.0039 22.2004 14.8257 24.01 15.1729 25.7558C15.5202 27.5016 16.3774 29.1053 17.636 30.364C18.8947 31.6226 20.4984 32.4798 22.2442 32.8271C23.99 33.1743 25.7996 32.9961 27.4442 32.3149C29.0887 31.6337 30.4943 30.4802 31.4832 29.0001C32.4722 27.5201 33 25.78 33 24C33 23.89 33 23.78 33 23.67M27 21L24.5 23.5L27 21ZM27 18V21H30L33 18H30V15L27 18Z" stroke="#1D1E25" stroke-width="2" stroke-linecap="round" stroke-linejoin="round"/>
</svg>
