<svg width="126" height="42" viewBox="0 0 126 42" fill="none" xmlns="http://www.w3.org/2000/svg">
<circle cx="21" cy="21" r="21" fill="url(#paint0_linear_5_1258)"/>
<path fill-rule="evenodd" clip-rule="evenodd" d="M16.4721 11.7593H12.0067V16.2247H16.4721V11.7593ZM12.0067 30.2411V20.7565L16.4823 16.2598V16.2808V21.2942V30.2411H12.0067ZM20.9995 11.7636C23.8545 11.7636 25.7633 11.7636 27.6579 14.2898C29 16.0792 29 17.8459 29 20.4554V30.2411H24.5244V20.8748C24.5244 19.3837 24.2214 18.242 23.6153 17.4499C23.0092 16.6576 22.2897 16.2616 20.7831 16.2616C19.5921 16.2616 16.8049 16.26 16.508 16.2598L16.5033 16.2598L16.4823 16.2598L20.9995 11.7636Z" fill="white"/>
<path d="M114.455 33.7954C112.738 33.7954 111.329 33.5272 110.229 32.9906C109.129 32.4272 108.311 31.6894 107.775 30.7773C107.238 29.8651 106.97 28.859 106.97 27.7591C106.97 25.9079 107.694 24.4055 109.143 23.2519C110.592 22.0983 112.765 21.5215 115.662 21.5215H120.733V21.0386C120.733 19.6704 120.344 18.6643 119.566 18.0204C118.788 17.3765 117.822 17.0546 116.668 17.0546C115.622 17.0546 114.71 17.3095 113.932 17.8192C113.154 18.3021 112.671 19.0265 112.483 19.9923H107.453C107.587 18.5436 108.07 17.2826 108.901 16.2095C109.76 15.1364 110.86 14.3181 112.201 13.7547C113.543 13.1645 115.045 12.8694 116.708 12.8694C119.552 12.8694 121.792 13.5803 123.429 15.0022C125.065 16.4241 125.884 18.4363 125.884 21.0386V33.3125H121.497L121.014 30.0931C120.424 31.1663 119.592 32.0516 118.519 32.7491C117.473 33.4467 116.118 33.7954 114.455 33.7954ZM115.622 29.7712C117.097 29.7712 118.238 29.2883 119.042 28.3225C119.874 27.3567 120.397 26.1628 120.612 24.7409H116.225C114.857 24.7409 113.878 24.9958 113.288 25.5055C112.698 25.9884 112.402 26.5921 112.402 27.3164C112.402 28.0944 112.698 28.6981 113.288 29.1273C113.878 29.5566 114.656 29.7712 115.622 29.7712Z" fill="black"/>
<path d="M102.044 33.3125C99.9515 33.3125 98.2748 32.8027 97.0138 31.7833C95.7529 30.7638 95.1224 28.9529 95.1224 26.3505V17.6582H91.7018V13.3522H95.1224L95.7261 8H100.273V13.3522H105.666V17.6582H100.273V26.3908C100.273 27.3566 100.475 28.0273 100.877 28.4029C101.306 28.7517 102.031 28.9261 103.05 28.9261H105.545V33.3125H102.044Z" fill="black"/>
<path d="M81.6666 33.7954C79.6545 33.7954 77.8704 33.3662 76.3144 32.5077C74.7584 31.6492 73.5377 30.4419 72.6523 28.8859C71.767 27.3298 71.3243 25.5323 71.3243 23.4934C71.3243 21.4276 71.7536 19.5899 72.6121 17.9802C73.4974 16.3705 74.7047 15.123 76.2339 14.2376C77.79 13.3255 79.6143 12.8694 81.7069 12.8694C83.6654 12.8694 85.3958 13.2986 86.8982 14.1571C88.4005 15.0156 89.5676 16.1961 90.3993 17.6985C91.2578 19.174 91.687 20.824 91.687 22.6483C91.687 22.9434 91.6736 23.2519 91.6468 23.5739C91.6468 23.8958 91.6334 24.2312 91.6065 24.5799H76.4351C76.5424 26.136 77.079 27.3567 78.0448 28.242C79.0375 29.1273 80.2313 29.57 81.6264 29.57C82.6727 29.57 83.5446 29.342 84.2422 28.8859C84.9665 28.403 85.5031 27.7859 85.8519 27.0347H91.0834C90.7078 28.2956 90.0773 29.4493 89.192 30.4956C88.3335 31.515 87.2603 32.3199 85.9726 32.9101C84.7117 33.5003 83.2763 33.7954 81.6666 33.7954ZM81.7069 17.0546C80.446 17.0546 79.3326 17.4168 78.3668 18.1411C77.4009 18.8387 76.7839 19.9118 76.5156 21.3605H86.4555C86.375 20.0459 85.8921 18.9996 85.0068 18.2216C84.1214 17.4436 83.0215 17.0546 81.7069 17.0546Z" fill="black"/>
<path d="M50 33.3125V13.3523H54.5474L54.9498 16.7327C55.5669 15.5522 56.4522 14.6132 57.6058 13.9157C58.7863 13.2182 60.1679 12.8694 61.7508 12.8694C64.219 12.8694 66.1372 13.6474 67.5055 15.2034C68.8737 16.7595 69.5578 19.0399 69.5578 22.0447V33.3125H64.4068V22.5276C64.4068 20.8106 64.058 19.496 63.3605 18.5838C62.6629 17.6716 61.5764 17.2156 60.1008 17.2156C58.6521 17.2156 57.4583 17.7253 56.5193 18.7448C55.6071 19.7643 55.151 21.1862 55.151 23.0105V33.3125H50Z" fill="black"/>
<defs>
<linearGradient id="paint0_linear_5_1258" x1="2.88485" y1="2.16364" x2="41.8303" y2="40.3879" gradientUnits="userSpaceOnUse">
<stop stop-color="#4478FF"/>
<stop offset="0.406964" stop-color="#444BFF"/>
<stop offset="1" stop-color="#6BE4FF"/>
</linearGradient>
</defs>
</svg>
