<svg width="61" height="61" viewBox="0 0 61 61" fill="none" xmlns="http://www.w3.org/2000/svg">
<path d="M61 30.5C61 47.3447 47.3447 61 30.5 61C13.6553 61 0 47.3447 0 30.5C0 13.6553 13.6553 0 30.5 0C47.3447 0 61 13.6553 61 30.5Z" fill="url(#paint0_linear_28_1420)"/>
<path fill-rule="evenodd" clip-rule="evenodd" d="M23.9238 17.0789H17.4383V23.5644H23.9238V17.0789ZM17.4384 43.9216V30.1463L23.9386 23.6156V43.9216H17.4384ZM30.4993 17.0854C34.6458 17.0854 37.4182 17.0854 40.1699 20.7544C42.119 23.3532 42.119 25.9192 42.119 29.7091V43.9216H35.6188V30.3183C35.6188 28.1526 35.1786 26.4944 34.2984 25.3439C33.4182 24.1933 32.3732 23.6181 30.185 23.6181C28.4495 23.6181 24.38 23.6158 23.9718 23.6156L23.9386 23.6156L30.4993 17.0854Z" fill="white"/>
<defs>
<linearGradient id="paint0_linear_28_1420" x1="4.1899" y1="3.14243" x2="60.7535" y2="58.6586" gradientUnits="userSpaceOnUse">
<stop stop-color="#4478FF"/>
<stop offset="0.406964" stop-color="#444BFF"/>
<stop offset="1" stop-color="#6BE4FF"/>
</linearGradient>
</defs>
</svg>
