<svg width="116" height="112" viewBox="0 0 116 112" fill="none" xmlns="http://www.w3.org/2000/svg">
<path d="M19.4555 2C19.4555 6.05607 20.0089 11.1081 19.9719 16.8706M19.9719 16.8706C19.9055 27.2124 17.9375 39.8428 7.45609 53.1117C-4.6116 68.3889 5.02245 35.4833 19.9719 16.8706ZM19.9719 16.8706C24.7718 10.8945 30.1196 6.39193 35.473 5.43058C44.9883 3.72182 44.9269 17.2663 40.9521 33.9239M40.9521 33.9239C34.1713 62.3405 16.0015 99.8166 14.559 86.0803C13.7672 78.5399 27.7163 51.1818 40.9521 33.9239ZM40.9521 33.9239C49.1133 23.2826 57.0033 16.4814 60.9991 20.534C64.2958 23.8775 64.6386 31.1181 63.1637 40.1039M63.1637 40.1039C58.6762 67.444 37.3617 110.94 31.2202 109.985C21.0429 108.401 43.7945 63.5497 63.1637 40.1039ZM63.1637 40.1039C71.1916 30.3865 78.6384 24.3462 82.919 26.5873C91.5453 31.1037 88.859 48.3084 82.3307 64.924M82.3307 64.924C75.6757 81.8619 65.0284 98.1875 58.3027 99.8355C51.5825 101.482 64.9022 78.6436 82.3307 64.924ZM82.3307 64.924C92.5449 56.8834 104.17 51.9749 114 56.963" stroke="#CABDFF" stroke-width="4" stroke-linecap="round"/>
</svg>
